<?xml version="1.0" standalone="no"?>
<!DOCTYPE svg PUBLIC "-//W3C//DTD SVG 20010904//EN"
 "http://www.w3.org/TR/2001/REC-SVG-20010904/DTD/svg10.dtd">
<svg version="1.0" xmlns="http://www.w3.org/2000/svg"
 width="300.000000pt" height="300.000000pt" viewBox="0 0 300.000000 300.000000"
 preserveAspectRatio="xMidYMid meet">
<metadata>
Created by potrace 1.16, written by Peter Selinger 2001-2019
</metadata>
<g transform="translate(0.000000,300.000000) scale(0.100000,-0.100000)"
fill="#000000" stroke="none">
<path d="M0 1500 l0 -1500 1500 0 1500 0 0 1500 0 1500 -1500 0 -1500 0 0
-1500z m1204 568 c153 -502 216 -713 216 -720 0 -4 -167 -8 -371 -8 l-371 0
-210 203 -210 202 208 203 207 202 253 0 253 0 25 -82z m1310 -600 l208 -203
-210 -202 -210 -203 -251 0 c-229 0 -250 1 -255 18 -3 9 -57 189 -121 398 -63
210 -115 385 -115 388 0 3 168 6 373 6 l374 0 207 -202z"/>
</g>
</svg>
